<?xml version="1.0" encoding="UTF-8"?>
<svg width="64px" height="128px" viewBox="0 0 64 128" version="1.1" xmlns="http://www.w3.org/2000/svg" xmlns:xlink="http://www.w3.org/1999/xlink">
    <!-- Generator: Sketch 52.2 (67145) - http://www.bohemiancoding.com/sketch -->
    <title>car</title>
    <desc>Created with Sketch.</desc>
    <g id="car" stroke="none" stroke-width="1" fill="none" fill-rule="evenodd">
        <path d="M6.409713,-2.58960077e-16 L57.590287,2.58960077e-16 C59.8190838,-1.50463262e-16 60.6272994,0.232064028 61.4421143,0.667831759 C62.2569291,1.10359949 62.8964005,1.74307093 63.3321682,2.55788574 C63.767936,3.37270056 64,4.18091615 64,6.409713 L64,121.590287 C64,123.819084 63.767936,124.627299 63.3321682,125.442114 C62.8964005,126.256929 62.2569291,126.896401 61.4421143,127.332168 C60.6272994,127.767936 59.8190838,128 57.590287,128 L6.409713,128 C4.18091615,128 3.37270056,127.767936 2.55788574,127.332168 C1.74307093,126.896401 1.10359949,126.256929 0.667831759,125.442114 C0.232064028,124.627299 1.00308841e-16,123.819084 -1.72640051e-16,121.590287 L1.72640051e-16,6.409713 C-1.00308841e-16,4.18091615 0.232064028,3.37270056 0.667831759,2.55788574 C1.10359949,1.74307093 1.74307093,1.10359949 2.55788574,0.667831759 C3.37270056,0.232064028 4.18091615,1.50463262e-16 6.409713,-2.58960077e-16 Z" id="Rectangle" fill="#4A56A2"></path>
        <rect id="Rectangle" fill="#7B83BC" x="5" y="0" width="8" height="4"></rect>
        <rect id="Rectangle" fill="#7B83BC" x="51" y="0" width="8" height="4"></rect>
        <polygon id="Path-6" fill="#9F2D2D" points="0 122 0 125.413757 3.12140802 128.827515 11.5141504 128.827515 11.5141504 125.413757 3.12140802 125.413757 3.12140802 122"></polygon>
        <rect id="Rectangle" fill="#5968C6" x="6" y="28" width="53" height="78" rx="5"></rect>
        <path d="M8.85199676,51.5875049 L10.5672144,53.6750456 C11.3022107,54.5695878 11.7039935,55.6914749 11.7039935,56.8492422 L11.7039935,84.7350647 C11.7039935,85.7274326 11.4086942,86.6973557 10.8556887,87.5213575 L8.85199676,90.506944 C8.37244303,91.2214996 7.4044262,91.4120062 6.68987066,90.9324525 C6.25868935,90.6430773 6,90.1579186 6,89.6386352 L6,52.6088941 C6,51.7203264 6.72032642,51 7.6088941,51 C8.09028798,51 8.546389,51.2155587 8.85199676,51.5875049 Z" id="Rectangle" fill="#9BA7EE"></path>
        <path d="M55.8519968,51.5875049 L57.5672144,53.6750456 C58.3022107,54.5695878 58.7039935,55.6914749 58.7039935,56.8492422 L58.7039935,84.7350647 C58.7039935,85.7274326 58.4086942,86.6973557 57.8556887,87.5213575 L55.8519968,90.506944 C55.372443,91.2214996 54.4044262,91.4120062 53.6898707,90.9324525 C53.2586894,90.6430773 53,90.1579186 53,89.6386352 L53,52.6088941 C53,51.7203264 53.7203264,51 54.6088941,51 C55.090288,51 55.546389,51.2155587 55.8519968,51.5875049 Z" id="Rectangle" fill="#9BA7EE" transform="translate(55.851997, 71.098488) scale(-1, 1) translate(-55.851997, -71.098488) "></path>
        <path d="M11.0158308,28 L53.6130955,28 C56.3745193,28 58.6130955,30.2385763 58.6130955,33 C58.6130955,33.4798094 58.5440322,33.9571208 58.4080301,34.4172517 L54.5655852,47.4172517 C53.9375826,49.5419495 51.9862156,51 49.7706506,51 L15.3055573,51 C13.1478424,51 11.2335246,49.6158379 10.5573843,47.5667972 L6.26765781,34.5667972 C5.40233962,31.9444537 6.82669008,29.1171452 9.4490336,28.251827 C9.95456346,28.0850128 10.4834893,28 11.0158308,28 Z" id="Rectangle" fill="#9BA7EE"></path>
        <path d="M10.2097403,94 L55.4070942,94 C57.5961743,94 59.3707744,95.7746001 59.3707744,97.9636802 C59.3707744,98.680895 59.1761716,99.3846705 58.8077063,100 L56.6707198,103.568724 C55.7676208,105.07688 54.1388793,106 52.3810042,106 L13.6864655,106 C12.0169636,106 10.4576102,105.166741 9.52976241,103.778816 L7.00356894,100 C5.81981723,98.2292804 6.29564869,95.8342082 8.06636826,94.6504565 C8.70074264,94.226368 9.44666637,94 10.2097403,94 Z" id="Rectangle" fill="#9BA7EE" transform="translate(32.812413, 100.000000) rotate(180.000000) translate(-32.812413, -100.000000) "></path>
        <rect id="Rectangle" fill="#5968C6" x="13" y="49" width="40" height="47" rx="5"></rect>
        <rect id="Rectangle" fill="#5968C6" x="6" y="69" width="53" height="5"></rect>
        <polygon id="Path-6" fill="#9F2D2D" transform="translate(58.757075, 125.413757) scale(-1, 1) translate(-58.757075, -125.413757) " points="53 122 53 125.413757 56.121408 128.827515 64.5141504 128.827515 64.5141504 125.413757 56.121408 125.413757 56.121408 122"></polygon>
    </g>
</svg>